C:\Users\israe\Dropbox\PhDWork\ExperimentalData/subject1/055/P1S055W01_EMG(MVC)_40ms.mot
nRows=17
nColumns=16

name C:\Users\israe\Dropbox\PhDWork\ExperimentalData/subject1/055/P1S055W01_EMG(MVC)_40ms.mot
datacolumns 16
datarows 17
range 2.8900000000 2.9060000000
endheader
time	BF	ST	VL	VM	RF	TFL	GE	GA	TA	GL	GM	SO	ES	MF	VI_a
        2.8900000000	        0.0773597213	        0.0535257113	        0.0171928799	        0.0293030769	        0.0155871277	        0.0324127992	        0.1493448123	        0.0148828087	        0.0277680806	        0.0594830256	        0.0266982098	        0.0448493063	        0.9035887627	        0.8664960051	        0.0232479784	
        2.8910000000	        0.0772502918	        0.0535044565	        0.0171457806	        0.0294059500	        0.0155056515	        0.0321014328	        0.1497312494	        0.0147917518	        0.0277679926	        0.0596122371	        0.0266264231	        0.0448363110	        0.9035600649	        0.8665808147	        0.0232758653	
        2.8920000000	        0.0771402627	        0.0534702032	        0.0170997636	        0.0295078056	        0.0154270978	        0.0317941737	        0.1500802959	        0.0147029823	        0.0277662964	        0.0597292618	        0.0265568582	        0.0448119433	        0.9035318340	        0.8666666826	        0.0233037846	
        2.8930000000	        0.0770298578	        0.0534230171	        0.0170551553	        0.0296082168	        0.0153514561	        0.0314917861	        0.1503875524	        0.0146165880	        0.0277628593	        0.0598343733	        0.0264897957	        0.0447762397	        0.9035038081	        0.8667530072	        0.0233316861	
        2.8940000000	        0.0769190164	        0.0533628568	        0.0170122276	        0.0297067660	        0.0152787353	        0.0311949899	        0.1506495509	        0.0145326813	        0.0277575842	        0.0599277120	        0.0264254575	        0.0447292046	        0.9034754404	        0.8668390154	        0.0233594968	
        2.8950000000	        0.0768074845	        0.0532895212	        0.0169711874	        0.0298030232	        0.0152089645	        0.0309044729	        0.1508638579	        0.0144513849	        0.0277504324	        0.0600093092	        0.0263640255	        0.0446707948	        0.9034462268	        0.8669243120	        0.0233871053	
        2.8960000000	        0.0766949703	        0.0532027043	        0.0169321774	        0.0298965061	        0.0151421704	        0.0306209080	        0.1510288109	        0.0143728064	        0.0277413852	        0.0600791481	        0.0263056613	        0.0446008995	        0.9034159917	        0.8670089835	        0.0234143418	
        2.8970000000	        0.0765812310	        0.0531021376	        0.0168952860	        0.0299866660	        0.0150783612	        0.0303449202	        0.1511433363	        0.0142970313	        0.0277303903	        0.0601372846	        0.0262504850	        0.0445193131	        0.9033849078	        0.8670934948	        0.0234409760	
        2.8980000000	        0.0764660357	        0.0529876756	        0.0168605583	        0.0300729106	        0.0150175268	        0.0300770385	        0.1512070689	        0.0142241339	        0.0277173307	        0.0601839713	        0.0261985375	        0.0444257346	        0.9033534051	        0.8671785681	        0.0234667345	
        2.8990000000	        0.0763491215	        0.0528592512	        0.0168280080	        0.0301546219	        0.0149596385	        0.0298176752	        0.1512204334	        0.0141541956	        0.0277020406	        0.0602196086	        0.0261497642	        0.0443198410	        0.9033220706	        0.8672650513	        0.0234913150	
        2.9000000000	        0.0762301977	        0.0527168053	        0.0167976267	        0.0302311611	        0.0149046428	        0.0295671396	        0.1511844657	        0.0140873115	        0.0276843619	        0.0602445864	        0.0261040216	        0.0442013817	        0.9032915358	        0.8673538014	        0.0235143939	
        2.9010000000	        0.0761089515	        0.0525602944	        0.0167693818	        0.0303018861	        0.0148524640	        0.0293256876	        0.1511005567	        0.0140235885	        0.0276641655	        0.0602592116	        0.0260610987	        0.0440702168	        0.9032623606	        0.8674454600	        0.0235356339	
        2.9020000000	        0.0759850730	        0.0523897798	        0.0167432063	        0.0303661725	        0.0148030301	        0.0290935650	        0.1509702456	        0.0139631467	        0.0276413333	        0.0602636990	        0.0260207442	        0.0439263641	        0.9032348707	        0.8675400136	        0.0235546894	
        2.9030000000	        0.0758583517	        0.0522055704	        0.0167189956	        0.0304234408	        0.0147563059	        0.0288709974	        0.1507950354	        0.0139061192	        0.0276157820	        0.0602581905	        0.0259826851	        0.0437700979	        0.9032089440	        0.8676366380	        0.0235712182	
        2.9040000000	        0.0757287705	        0.0520082849	        0.0166966060	        0.0304731812	        0.0147122970	        0.0286581740	        0.1505763143	        0.0138526360	        0.0275875166	        0.0602428622	        0.0259466328	        0.0436020187	        0.9031840099	        0.8677342096	        0.0235848936	
        2.9050000000	        0.0755964882	        0.0517987500	        0.0166758486	        0.0305149818	        0.0146710233	        0.0284552897	        0.1503154932	        0.0138028053	        0.0275566456	        0.0602180131	        0.0259123221	        0.0434230154	        0.9031593848	        0.8678318512	        0.0235954152	
        2.9060000000	        0.0754617349	        0.0515779345	        0.0166564851	        0.0305485657	        0.0146324916	        0.0282625806	        0.1500143290	        0.0137567107	        0.0275233477	        0.0601840540	        0.0258795820	        0.0432341763	        0.9031345654	        0.8679290438	        0.0236025254	
